<svg width="22" height="28" viewBox="0 0 22 28" fill="none" xmlns="http://www.w3.org/2000/svg">
<path d="M7.15532 23.7175C5.90166 22.5676 5.53568 20.1514 6.05799 18.401C6.96365 19.5046 8.2185 19.8542 9.51829 20.0515C11.5249 20.3561 13.4955 20.2422 15.3595 19.3219C15.5727 19.2165 15.7698 19.0764 16.0028 18.9345C16.1777 19.4436 16.2232 19.9578 16.1621 20.4809C16.0136 21.7551 15.3817 22.7394 14.3766 23.4855C13.9747 23.7839 13.5494 24.0506 13.1343 24.3321C11.8591 25.197 11.5141 26.211 11.9932 27.6862C12.0046 27.7221 12.0149 27.758 12.0406 27.8458C11.3894 27.5534 10.9139 27.1277 10.5516 26.5679C10.1688 25.9771 9.98666 25.3236 9.9771 24.6165C9.97227 24.2724 9.97227 23.9252 9.92614 23.586C9.81355 22.7589 9.42668 22.3885 8.69768 22.3672C7.94956 22.3453 7.35777 22.8094 7.20084 23.5402C7.18886 23.5963 7.17149 23.6517 7.15412 23.7169L7.15532 23.7175Z" fill="#FF7917"/>
<path d="M0 18.1094C0 18.1094 3.71229 16.2947 7.43496 16.2947L10.2417 7.57836C10.3468 7.15682 10.6536 6.87037 11 6.87037C11.3464 6.87037 11.6532 7.15682 11.7583 7.57836L14.5651 16.2947C18.974 16.2947 22 18.1094 22 18.1094C22 18.1094 15.6944 0.872418 15.6821 0.837834C15.5011 0.328216 15.1956 0 14.7837 0H7.21701C6.8051 0 6.51191 0.328216 6.31861 0.837834C6.30499 0.871765 0 18.1094 0 18.1094Z" fill="white"/>
</svg>
