<svg width="25" height="19" viewBox="0 0 25 19" fill="none" xmlns="http://www.w3.org/2000/svg">
<path d="M24.7534 6.80303C24.6856 6.74893 24.0527 6.26882 22.7178 6.26882C22.3654 6.27037 22.0136 6.30074 21.6661 6.35964C21.4077 4.58077 19.9437 3.71348 19.8781 3.67457L19.5196 3.46692L19.2839 3.80866C18.9887 4.26771 18.7731 4.77376 18.6466 5.3053C18.4076 6.32074 18.553 7.27449 19.0664 8.08987C18.4464 8.43699 17.4517 8.52243 17.2504 8.52999H0.782566C0.35243 8.53058 0.00339437 8.87977 0.00105021 9.31184C-0.0181579 10.7611 0.226265 12.2017 0.722282 13.5628C1.28957 15.0573 2.13354 16.1581 3.23155 16.8318C4.46196 17.5888 6.46097 18.0213 8.72693 18.0213C9.7506 18.0246 10.7723 17.9315 11.7788 17.7434C13.1778 17.4854 14.524 16.9941 15.7617 16.29C16.7815 15.6967 17.6994 14.942 18.4798 14.0548C19.7845 12.5711 20.5617 10.9187 21.1398 9.45025H21.3701C22.7986 9.45025 23.677 8.87601 24.1614 8.39481C24.4833 8.0879 24.7347 7.71404 24.8977 7.29938L25 6.99876L24.7534 6.80303Z" fill="#1D63ED"/>
<path d="M2.30901 8.04552H4.51577C4.62221 8.04552 4.70845 7.95885 4.70845 7.85197V5.87732C4.70904 5.77041 4.62326 5.68328 4.51686 5.68268C4.51651 5.68268 4.51612 5.68268 4.51577 5.68268H2.30901C2.20258 5.68268 2.11633 5.76935 2.11633 5.87623V5.87732V7.85193C2.11633 7.95885 2.20258 8.04552 2.30901 8.04552Z" fill="#1D63ED"/>
<path d="M5.35004 8.04552H7.55681C7.66324 8.04552 7.74948 7.95885 7.74948 7.85197V5.87732C7.75008 5.77041 7.66429 5.68328 7.55786 5.68268C7.55751 5.68268 7.55712 5.68268 7.55677 5.68268H5.35001C5.24298 5.68268 5.15625 5.76981 5.15625 5.87732V7.85193C5.15688 7.95903 5.24344 8.04552 5.35004 8.04552Z" fill="#1D63ED"/>
<path d="M8.43734 8.04552H10.6441C10.7505 8.04552 10.8368 7.95885 10.8368 7.85197V5.87732C10.8374 5.77041 10.7516 5.68328 10.6452 5.68268C10.6448 5.68268 10.6444 5.68268 10.6441 5.68268H8.4373C8.33087 5.68268 8.24463 5.76935 8.24463 5.87623V5.87732V7.85193C8.24466 7.95885 8.33094 8.04552 8.43734 8.04552Z" fill="#1D63ED"/>
<path d="M11.4881 8.04552H13.6948C13.8015 8.04552 13.888 7.95906 13.8886 7.85197V5.87732C13.8886 5.76981 13.8019 5.68268 13.6948 5.68268H11.4881C11.3816 5.68268 11.2954 5.76935 11.2954 5.87623V5.87732V7.85193C11.2954 7.95885 11.3817 8.04552 11.4881 8.04552Z" fill="#1D63ED"/>
<path d="M5.35004 5.20467H7.55681C7.66338 5.20407 7.74949 5.11708 7.74949 5.01002V3.03541C7.74949 2.9285 7.66321 2.84186 7.55681 2.84186H5.35004C5.24347 2.84186 5.15688 2.92832 5.15628 3.03541V5.01002C5.15688 5.11729 5.24326 5.20407 5.35004 5.20467Z" fill="#1D63ED"/>
<path d="M8.43734 5.20467H10.6441C10.7507 5.20407 10.8368 5.11708 10.8368 5.01002V3.03541C10.8368 2.9285 10.7505 2.84186 10.6441 2.84186H8.43734C8.33091 2.84186 8.24466 2.92853 8.24466 3.03541V5.01002C8.24466 5.11708 8.33077 5.20407 8.43734 5.20467Z" fill="#1D63ED"/>
<path d="M11.4881 5.20467H13.6948C13.8016 5.20407 13.888 5.11729 13.8886 5.01002V3.03541C13.888 2.92832 13.8015 2.84186 13.6948 2.84186H11.4881C11.3816 2.84186 11.2954 2.92853 11.2954 3.03541V5.01002C11.2954 5.11708 11.3815 5.20407 11.4881 5.20467Z" fill="#1D63ED"/>
<path d="M11.4881 2.36284H13.6948C13.8015 2.36284 13.888 2.27635 13.8886 2.16929V0.193556C13.888 0.0864623 13.8015 0 13.6948 0H11.4881C11.3816 0 11.2954 0.086638 11.2954 0.193556V2.16925C11.2954 2.27617 11.3817 2.36284 11.4881 2.36284Z" fill="#1D63ED"/>
<path d="M14.5657 8.04552H16.7725C16.8791 8.04552 16.9656 7.95906 16.9662 7.85197V5.87732C16.9662 5.76981 16.8795 5.68268 16.7725 5.68268H14.5657C14.4593 5.68268 14.373 5.76935 14.373 5.87623V5.87732V7.85193C14.373 7.95885 14.4593 8.04552 14.5657 8.04552Z" fill="#1D63ED"/>
</svg>
