<svg width="23" height="21" viewBox="0 0 23 21" fill="none" xmlns="http://www.w3.org/2000/svg">
<path d="M10.8986 7.71906C11.0866 7.43912 11.2924 7.40261 11.4602 7.40261C11.6267 7.40261 11.9051 7.43912 12.0931 7.71906C14.5438 11.1343 19.6261 20.1436 20.096 20.6341C20.792 21.3607 21.7473 20.9079 22.3017 20.0839C22.8489 19.2721 23 18.7025 23 18.0951C23 17.6813 15.0851 2.7422 14.2868 1.49829C13.5207 0.301849 13.2709 0 11.9598 0H10.9783C9.6697 0 9.48054 0.301849 8.71438 1.49707C7.91492 2.74342 0 17.6825 0 18.0963C0 18.7049 0.151089 19.2733 0.698342 20.0851C1.25273 20.9091 2.20804 21.3631 2.90401 20.6353C3.37393 20.1448 8.44908 11.1356 10.8986 7.72149V7.71906Z" fill="white"/>
</svg>
