<svg width="39" height="10" viewBox="0 0 39 10" fill="none" xmlns="http://www.w3.org/2000/svg">
<path d="M30.9028 0.00390625H39V1.49465H35.7879V9.33723H34.1818V1.49465H30.9028V0.00390625Z" fill="white"/>
<path d="M17.5861 0.00390625V1.49465H11.0957V3.89279H16.3153V5.38353H11.0957V7.84649H17.5861V9.33723H9.48966V1.49465H9.48898V0.00390625H17.5861Z" fill="white"/>
<path d="M21.6292 0.0078125H19.5274L27.0557 9.34114H29.1636L25.399 4.67768L29.1576 0.0149332L27.0557 0.0181732L24.3467 3.37409L21.6292 0.0078125Z" fill="white"/>
<path d="M23.786 6.67464L22.7335 5.36926L19.5214 9.34824H21.6292L23.786 6.67464Z" fill="white"/>
<path fill-rule="evenodd" clip-rule="evenodd" d="M9.54591 9.33721L2.00755 0H0V9.33332H1.60604V1.99499L7.52831 9.33721H9.54591Z" fill="white"/>
</svg>
