<svg width="28" height="29" viewBox="0 0 28 29" fill="none" xmlns="http://www.w3.org/2000/svg">
<path d="M14 16.7834C15.4359 16.7834 16.6 15.6193 16.6 14.1834C16.6 12.7474 15.4359 11.5834 14 11.5834C12.5641 11.5834 11.4 12.7474 11.4 14.1834C11.4 15.6193 12.5641 16.7834 14 16.7834Z" fill="#17ACFF"/>
<path d="M14 20.0334C21.1797 20.0334 27 17.4142 27 14.1834C27 10.9525 21.1797 8.33337 14 8.33337C6.8203 8.33337 1 10.9525 1 14.1834C1 17.4142 6.8203 20.0334 14 20.0334Z" stroke="#17ACFF"/>
<path d="M8.93376 17.1083C12.5236 23.3261 17.702 27.0571 20.5 25.4417C23.298 23.8262 22.6561 17.4761 19.0663 11.2583C15.4764 5.04053 10.298 1.30957 7.50001 2.925C4.70199 4.54043 5.34391 10.8905 8.93376 17.1083Z" stroke="#17ACFF"/>
<path d="M8.93376 11.2584C5.34391 17.4762 4.70199 23.8263 7.50001 25.4417C10.298 27.0571 15.4764 23.3262 19.0663 17.1084C22.6561 10.8906 23.298 4.54047 20.5 2.92504C17.702 1.3096 12.5236 5.04056 8.93376 11.2584Z" stroke="#17ACFF"/>
</svg>
