<svg width="189" height="52" viewBox="0 0 189 52" fill="none" xmlns="http://www.w3.org/2000/svg">
<path fill-rule="evenodd" clip-rule="evenodd" d="M25.0539 47.5206C23.7415 45.5556 22.4435 43.6121 22.1709 43.189L21.6689 42.4288L20.7008 42.3858C12.0877 41.9483 4.67942 36.2827 2.01158 28.0928C0.828266 24.4568 0.677661 20.5124 1.58845 16.8118C2.14067 14.5743 2.9654 12.6093 4.15589 10.6945C6.95998 6.19787 11.5785 2.86308 16.7922 1.57936C19.5748 0.890886 22.6801 0.811999 25.6061 1.36421C28.568 1.91643 31.5729 3.236 33.9969 5.04324C35.7181 6.33413 36.9875 7.59633 38.2568 9.28166C40.6091 12.3941 42.0578 16.2238 42.3518 20.1108C42.4164 20.957 42.3949 23.0655 42.316 23.7683C42.0219 26.3429 41.3765 28.5804 40.2721 30.8323C39.3684 32.6682 38.0345 34.5831 36.6647 36.0102C36.2058 36.4907 36.0767 36.5911 36.005 36.5122C35.8902 36.3903 31.8167 30.3016 31.8167 30.2514C31.8167 30.2299 31.8956 30.1223 31.996 30.0219C32.0964 29.9143 32.4263 29.4625 32.7204 29.0107C36.966 22.628 34.9579 14.101 28.2883 10.2211C26.0795 8.93025 23.1893 8.27046 20.7581 8.48561C15.9101 8.92308 11.8869 11.6483 9.79993 15.9154C9.1258 17.2852 8.73137 18.6549 8.53773 20.2901C8.40865 21.3586 8.40865 22.0614 8.53773 23.1228C8.74571 24.8655 9.11863 26.0991 9.90034 27.6768C11.4637 30.7965 14.1818 33.1344 17.5668 34.2675C19.0585 34.7695 19.9334 34.8986 21.7048 34.9058C23.0315 34.9058 23.2682 34.8843 24.1431 34.705C24.6738 34.5974 25.1902 34.497 25.2906 34.4755C25.4555 34.4468 25.6205 34.6763 27.4851 37.4804C28.5967 39.1442 31.0924 42.8734 33.0287 45.7564C34.9651 48.6466 36.55 51.0275 36.55 51.049C36.55 51.0706 34.4989 51.0921 31.996 51.0921H27.4421L25.0539 47.5206Z" fill="white" stroke="white" stroke-width="0.420284"/>
<path fill-rule="evenodd" clip-rule="evenodd" d="M21.253 28.9605C19.4959 28.7454 18.3485 28.2864 17.1508 27.3326C15.5516 26.0632 14.5762 24.1484 14.483 22.083C14.3754 19.8741 15.1284 17.9737 16.7277 16.4389C19.1732 14.0867 23.01 13.7926 25.8213 15.7361C26.8827 16.4676 27.9441 17.7872 28.4174 18.9562C28.9338 20.2399 29.0844 21.8105 28.8047 23.1085C28.4317 24.8727 27.5425 26.3286 26.1942 27.3756C25.5344 27.892 24.5663 28.4083 23.8563 28.6235C23.0674 28.8673 21.7908 29.0323 21.253 28.9605Z" fill="white" stroke="white" stroke-width="0.420284"/>
<path d="M48.976 42V7.24799H56.848V42H48.976Z" fill="white"/>
<path d="M62.8041 13.296V7.24799H70.6761V13.296H62.8041ZM62.8041 42V16.704H70.6761V42H62.8041Z" fill="white"/>
<path d="M88.5842 42.576C85.8002 42.576 83.4322 42.096 81.4802 41.136C79.5282 40.176 78.0242 38.72 76.9682 36.768C75.9442 34.784 75.4322 32.304 75.4322 29.328C75.4322 26.352 75.9602 23.888 77.0162 21.936C78.0722 19.952 79.5762 18.48 81.5282 17.52C83.4802 16.56 85.8322 16.08 88.5842 16.08C90.3762 16.08 92.0242 16.288 93.5282 16.704C95.0642 17.12 96.3922 17.76 97.5122 18.624C98.6643 19.488 99.5442 20.576 100.152 21.888C100.76 23.2 101.064 24.768 101.064 26.592H93.3363C93.3363 25.504 93.1442 24.608 92.7603 23.904C92.4082 23.2 91.8802 22.672 91.1762 22.32C90.4722 21.968 89.5922 21.792 88.5362 21.792C87.3202 21.792 86.3282 22.048 85.5602 22.56C84.8242 23.072 84.2802 23.824 83.9282 24.816C83.5762 25.808 83.4002 27.04 83.4002 28.512V30.24C83.4002 31.68 83.5762 32.896 83.9282 33.888C84.2802 34.88 84.8562 35.632 85.6562 36.144C86.4562 36.624 87.4802 36.864 88.7282 36.864C89.8162 36.864 90.7122 36.704 91.4162 36.384C92.1522 36.032 92.7122 35.504 93.0962 34.8C93.4802 34.064 93.6722 33.152 93.6722 32.064H101.064C101.064 33.824 100.76 35.376 100.152 36.72C99.5442 38.032 98.6803 39.12 97.5602 39.984C96.4402 40.848 95.1122 41.504 93.5762 41.952C92.0402 42.368 90.3762 42.576 88.5842 42.576Z" fill="white"/>
<path d="M113.079 42.576C112.023 42.576 110.983 42.464 109.959 42.24C108.967 42.048 108.055 41.696 107.223 41.184C106.423 40.64 105.783 39.904 105.303 38.976C104.823 38.048 104.583 36.88 104.583 35.472C104.583 33.648 104.967 32.16 105.735 31.008C106.503 29.856 107.607 28.96 109.047 28.32C110.519 27.648 112.279 27.184 114.327 26.928C116.407 26.672 118.727 26.544 121.287 26.544V24.96C121.287 24.224 121.143 23.616 120.855 23.136C120.567 22.624 120.135 22.24 119.559 21.984C119.015 21.696 118.279 21.552 117.351 21.552C116.519 21.552 115.783 21.648 115.143 21.84C114.535 22.032 114.071 22.32 113.751 22.704C113.431 23.056 113.271 23.488 113.271 24V24.432H105.591C105.559 24.272 105.543 24.144 105.543 24.048C105.543 23.92 105.543 23.76 105.543 23.568C105.543 22.064 106.007 20.752 106.935 19.632C107.895 18.512 109.255 17.648 111.015 17.04C112.775 16.432 114.903 16.128 117.399 16.128C119.735 16.128 121.767 16.416 123.495 16.992C125.255 17.568 126.631 18.448 127.623 19.632C128.647 20.816 129.159 22.368 129.159 24.288V35.088C129.159 35.632 129.303 36.064 129.591 36.384C129.911 36.704 130.295 36.864 130.743 36.864H132.375V41.712C132.023 41.872 131.463 42.048 130.695 42.24C129.959 42.464 129.063 42.576 128.007 42.576C126.919 42.576 125.959 42.432 125.127 42.144C124.327 41.888 123.655 41.52 123.111 41.04C122.599 40.528 122.247 39.936 122.055 39.264H121.719C121.111 39.904 120.391 40.48 119.559 40.992C118.759 41.504 117.815 41.888 116.727 42.144C115.671 42.432 114.455 42.576 113.079 42.576ZM116.007 37.152C116.775 37.152 117.479 37.04 118.119 36.816C118.759 36.592 119.303 36.288 119.751 35.904C120.231 35.488 120.599 34.992 120.855 34.416C121.143 33.84 121.287 33.216 121.287 32.544V30.864C119.463 30.864 117.895 30.992 116.583 31.248C115.271 31.504 114.263 31.904 113.559 32.448C112.855 32.992 112.503 33.68 112.503 34.512C112.503 35.12 112.647 35.632 112.935 36.048C113.255 36.432 113.671 36.72 114.183 36.912C114.695 37.072 115.303 37.152 116.007 37.152Z" fill="white"/>
<path d="M146.449 42.576C144.785 42.576 143.217 42.4 141.745 42.048C140.305 41.696 139.025 41.184 137.905 40.512C136.817 39.84 135.953 39.008 135.313 38.016C134.705 37.024 134.401 35.872 134.401 34.56C134.401 34.432 134.401 34.32 134.401 34.224C134.401 34.096 134.417 33.984 134.449 33.888H141.889C141.889 33.952 141.889 34.032 141.889 34.128C141.889 34.192 141.889 34.256 141.889 34.32C141.921 35.024 142.145 35.616 142.561 36.096C143.009 36.544 143.585 36.88 144.289 37.104C144.993 37.296 145.761 37.392 146.593 37.392C147.201 37.392 147.841 37.328 148.513 37.2C149.217 37.072 149.809 36.848 150.289 36.528C150.769 36.208 151.009 35.744 151.009 35.136C151.009 34.464 150.705 33.952 150.097 33.6C149.521 33.248 148.737 32.96 147.745 32.736C146.785 32.48 145.745 32.24 144.625 32.016C143.505 31.76 142.369 31.472 141.217 31.152C140.097 30.832 139.057 30.4 138.097 29.856C137.169 29.28 136.417 28.544 135.841 27.648C135.265 26.752 134.977 25.616 134.977 24.24C134.977 22.768 135.281 21.52 135.889 20.496C136.529 19.44 137.393 18.592 138.481 17.952C139.569 17.312 140.817 16.848 142.225 16.56C143.665 16.272 145.185 16.128 146.785 16.128C148.257 16.128 149.649 16.272 150.961 16.56C152.305 16.848 153.505 17.296 154.561 17.904C155.649 18.48 156.497 19.232 157.105 20.16C157.713 21.056 158.017 22.112 158.017 23.328C158.017 23.488 158.001 23.664 157.969 23.856C157.969 24.016 157.969 24.128 157.969 24.192H150.577V23.808C150.577 23.264 150.401 22.816 150.049 22.464C149.697 22.112 149.217 21.84 148.609 21.648C148.001 21.424 147.329 21.312 146.593 21.312C146.113 21.312 145.633 21.36 145.153 21.456C144.705 21.52 144.289 21.632 143.905 21.792C143.521 21.92 143.201 22.112 142.945 22.368C142.721 22.624 142.609 22.944 142.609 23.328C142.609 23.808 142.817 24.208 143.233 24.528C143.649 24.816 144.209 25.056 144.913 25.248C145.649 25.44 146.449 25.648 147.313 25.872C148.497 26.128 149.745 26.4 151.057 26.688C152.369 26.944 153.601 27.328 154.753 27.84C155.937 28.32 156.881 29.056 157.585 30.048C158.321 31.008 158.689 32.336 158.689 34.032C158.689 35.632 158.369 36.992 157.729 38.112C157.089 39.2 156.209 40.08 155.089 40.752C153.969 41.392 152.673 41.856 151.201 42.144C149.729 42.432 148.145 42.576 146.449 42.576Z" fill="white"/>
<path d="M175.782 42.576C172.902 42.576 170.454 42.112 168.438 41.184C166.422 40.224 164.87 38.768 163.782 36.816C162.726 34.864 162.198 32.368 162.198 29.328C162.198 26.352 162.726 23.888 163.782 21.936C164.838 19.984 166.358 18.528 168.342 17.568C170.326 16.608 172.71 16.128 175.494 16.128C178.246 16.128 180.566 16.592 182.454 17.52C184.374 18.448 185.83 19.872 186.822 21.792C187.814 23.712 188.31 26.192 188.31 29.232V30.912H170.166C170.166 32.256 170.358 33.392 170.742 34.32C171.126 35.248 171.718 35.952 172.518 36.432C173.318 36.912 174.39 37.152 175.734 37.152C176.534 37.152 177.238 37.056 177.846 36.864C178.454 36.672 178.966 36.4 179.382 36.048C179.798 35.664 180.118 35.216 180.342 34.704C180.566 34.192 180.678 33.616 180.678 32.976H188.31C188.31 34.512 188.022 35.888 187.446 37.104C186.902 38.288 186.086 39.296 184.998 40.128C183.91 40.928 182.582 41.536 181.014 41.952C179.478 42.368 177.734 42.576 175.782 42.576ZM170.214 26.544H180.294C180.294 25.712 180.182 24.992 179.958 24.384C179.766 23.744 179.462 23.216 179.046 22.8C178.662 22.384 178.182 22.08 177.606 21.888C177.062 21.664 176.422 21.552 175.686 21.552C174.534 21.552 173.574 21.744 172.806 22.128C172.038 22.512 171.446 23.072 171.03 23.808C170.614 24.544 170.342 25.456 170.214 26.544Z" fill="white"/>
</svg>
